# xmcd
#
# Track frame offsets: 
#        150
#        32240
#        51876
#        67623
#        125126
#        165549
#        199360
#
# Disc length: 3285 seconds
#
# Revision: 0
# Processed by: cddbd v1.5.2PL0 Copyright (c) Steve Scherf et al.
# Submitted via: ExactAudioCopyFreeDBPlugin 1.0
#
DISCID=600cd307
DTITLE=The London Steve Reich Ensemble - Different Trains
DYEAR=1900
DGENRE=Avantgarde
TTITLE0=Triple Quartet - Movement 1
TTITLE1=Triple Quartet - Movement 2
TTITLE2=Triple Quartet - Movement 3
TTITLE3=Piano Counterpoint
TTITLE4=Different Trains America before the war
TTITLE5=Different Trains During the war
TTITLE6=Different Trains After the war
EXTD=
EXTT0=
EXTT1=
EXTT2=
EXTT3=
EXTT4=
EXTT5=
EXTT6=
PLAYORDER=
